<svg width="24" height="25" viewBox="0 0 24 25" fill="none" xmlns="http://www.w3.org/2000/svg">
<path fill-rule="evenodd" clip-rule="evenodd" d="M10.676 12.5263L10.6776 12.8708C10.6893 14.2369 10.7717 15.4558 10.9137 16.2282C10.9137 16.2421 11.0687 17.0082 11.1673 17.2631C11.3223 17.6318 11.6024 17.9446 11.9536 18.1428C12.2348 18.2842 12.5297 18.356 12.8386 18.356C13.0813 18.3447 13.4816 18.2227 13.7673 18.1202L14.0047 18.0292C15.5773 17.4045 18.5833 15.3635 19.7346 14.1153L19.8195 14.0281L20.1983 13.6193C20.4371 13.3063 20.5633 12.9239 20.5633 12.5124C20.5633 12.1439 20.4509 11.7752 20.2259 11.4774C20.1586 11.3809 20.05 11.2571 19.9535 11.1525L19.5848 10.7666C18.3159 9.481 15.5688 7.67775 14.1448 7.08026C14.1448 7.06741 13.2598 6.69777 12.8386 6.68384H12.7824C12.1361 6.68384 11.5324 7.05241 11.2235 7.64813C11.1392 7.81098 11.0583 8.13 10.9968 8.41018L10.8861 8.9392C10.7599 9.78992 10.676 11.0949 10.676 12.5263ZM4.51724 11.0431C3.70975 11.0431 3.05505 11.7041 3.05505 12.5195C3.05505 13.3348 3.70975 13.996 4.51724 13.996L8.11541 13.6777C8.74889 13.6777 9.26245 13.1602 9.26245 12.5195C9.26245 11.8798 8.74889 11.3613 8.11541 11.3613L4.51724 11.0431Z" fill="white"/>
</svg>
