<svg width="40" height="40" viewBox="0 0 40 40" fill="none" xmlns="http://www.w3.org/2000/svg">
<path fill-rule="evenodd" clip-rule="evenodd" d="M0.858887 20.2037C0.858887 9.46615 9.59049 0.73877 20.3125 0.73877C31.0346 0.73877 39.7661 9.46615 39.7661 20.2037C39.7661 30.9185 31.0346 39.646 20.3125 39.646C9.59049 39.646 0.858887 30.9185 0.858887 20.2037ZM27.4481 22.1724C27.6545 21.966 27.9175 21.6469 27.9737 21.5719C28.2743 21.1777 28.4245 20.6898 28.4245 20.2037C28.4245 19.6574 28.2554 19.1507 27.9362 18.7379C27.9101 18.7116 27.8588 18.656 27.792 18.5832C27.6672 18.4474 27.488 18.2521 27.3166 18.0809C25.7768 16.4293 21.7583 13.7266 19.6554 12.9008C19.3361 12.7713 18.5286 12.4879 18.0967 12.4691C17.6836 12.4691 17.2892 12.563 16.9138 12.7507C16.4444 13.0134 16.0688 13.4263 15.8622 13.9143C15.7308 14.2521 15.5242 15.2656 15.5242 15.2844C15.3177 16.3917 15.205 18.1935 15.205 20.1831C15.205 22.0806 15.3177 23.8053 15.4867 24.9315C15.4913 24.9362 15.5075 25.0167 15.5326 25.1418C15.6088 25.5221 15.7678 26.3146 15.9373 26.6393C16.3504 27.4276 17.1579 27.9157 18.0217 27.9157H18.0967C18.6601 27.8968 19.8431 27.4089 19.8431 27.3902C21.8336 26.5642 25.758 23.9931 27.3353 22.285L27.4481 22.1724Z" fill="#FF2626"/>
</svg>
